<?xml version="1.0" encoding="utf-8"?>
<!-- Generator: Adobe Illustrator 16.0.0, SVG Export Plug-In . SVG Version: 6.00 Build 0)  -->
<!DOCTYPE svg PUBLIC "-//W3C//DTD SVG 1.1//EN" "http://www.w3.org/Graphics/SVG/1.1/DTD/svg11.dtd">
<svg version="1.1" id="Layer_1" xmlns="http://www.w3.org/2000/svg" xmlns:xlink="http://www.w3.org/1999/xlink" x="0px" y="0px"
	 width="50px" height="50px" viewBox="0 0 50 50" enable-background="new 0 0 50 50" xml:space="preserve">
<g>
	<g>
		<g>
			<path fill="#F2F1CD" d="M28.92,11.244c-2.588,0-4.033,0.611-5.354,1.837c-1.318,1.227-0.891,3.323-0.891,5.129v4.646h-4.643V27.5
				h4.645v11.611h4.645V27.5h3.484l1.16-4.645h-4.645V20.53c0-0.771,0.027-0.473,0-2.32c-0.025-1.656,1.002-2.323,1.922-2.323h1.852
				l0.871-4.385v-0.112c-0.314-0.043-0.436-0.039-1.088-0.084C30.227,11.264,29.572,11.244,28.92,11.244L28.92,11.244z"/>
		</g>
	</g>
	<path fill="#F2F1CD" d="M44.115,5.839c-2.837-2.829-6.176-4.755-28.684-3.719c-3.769,0.17-7.037,1.091-9.678,3.719
		c-2.646,2.643-3.558,5.923-3.728,9.655c-0.108,2.33-0.729,19.925,1.072,24.54c1.21,3.113,3.599,5.507,6.741,6.724
		c1.466,0.57,3.14,0.957,5.592,1.067c20.526,0.93,28.136,0.426,31.344-7.791c0.57-1.461,0.959-3.135,1.068-5.583
		C48.782,13.875,47.694,9.414,44.115,5.839z M43.699,34.266c-0.104,2.242-0.479,3.457-0.794,4.271
		c-2.086,5.343-6.884,6.087-27.283,5.15c-2.249-0.102-3.466-0.477-4.28-0.789c-2.048-0.796-3.583-2.328-4.375-4.361
		C5.599,35.031,6.053,18.376,6.175,15.68c0.118-2.638,0.654-5.049,2.516-6.913c2.305-2.299,5.284-3.425,25.56-2.511
		c2.645,0.12,5.065,0.653,6.932,2.511C43.486,11.065,44.629,14.067,43.699,34.266z"/>
</g>
<g>
</g>
<g>
</g>
<g>
</g>
<g>
</g>
<g>
</g>
<g>
</g>
</svg>
