<?xml version="1.0" encoding="utf-8"?>
<!-- Generator: Adobe Illustrator 16.0.0, SVG Export Plug-In . SVG Version: 6.00 Build 0)  -->
<!DOCTYPE svg PUBLIC "-//W3C//DTD SVG 1.1//EN" "http://www.w3.org/Graphics/SVG/1.1/DTD/svg11.dtd">
<svg version="1.1" id="Layer_1" xmlns="http://www.w3.org/2000/svg" xmlns:xlink="http://www.w3.org/1999/xlink" x="0px" y="0px"
	 width="280px" height="110px" viewBox="0.617 0 280 110" enable-background="new 0.617 0 280 110" xml:space="preserve">
<g>
	<g>
		<path fill="#FFFFFF" d="M135.969,74.258c-0.2-7.364-0.298-12.698-0.298-16.003l-0.179-0.239l0.239-0.537
			c0-0.717-0.08-1.453-0.239-2.209l-0.896-0.239c-0.358,0.119-0.757,0.179-1.194,0.179c-0.319,0-0.976-0.099-1.971-0.298
			c-0.677-0.199-1.294-0.299-1.851-0.299l-0.657,0.239c0,1.394-0.021,2.647-0.06,3.762c-0.04,1.115-0.06,2.369-0.06,3.762
			l0.12,0.239c0,1.114,0.06,2.787,0.179,5.016c0.12,2.189,0.179,3.842,0.179,4.956c0,0.438-0.08,0.807-0.239,1.104
			c-0.16,0.299-0.398,0.448-0.716,0.448c-0.876,0-1.314-1.194-1.314-3.583c0-2.03,0.02-3.86,0.06-5.493l0.06-5.435
			c0-3.622-0.06-5.572-0.179-5.852c0.199-0.397,0.298-1.711,0.298-3.941c0-1.911-0.08-4.24-0.239-6.987l-0.119-2.329l-0.12-4.658
			c0-0.278,0.099-0.538,0.298-0.776c0.199-0.239,0.438-0.358,0.717-0.358c0.796,0,1.194,1.155,1.194,3.464
			c0,2.708-0.021,5.156-0.06,7.345c-0.081,2.189-0.12,4.598-0.12,7.225c0,0.478,1.513,0.717,4.538,0.717h0.239
			c0.755,0,1.303-0.149,1.642-0.448c0.337-0.299,0.507-0.806,0.507-1.523c0-2.109-0.14-4.856-0.418-8.24
			c-0.239-3.663-0.358-6.409-0.358-8.241c0-0.239,0.099-0.448,0.299-0.627c0.199-0.179,0.438-0.269,0.716-0.269l0.538,0.179
			c0.278,0.041,0.457,0.1,0.538,0.179c0,3.105,0.119,7.743,0.358,13.914c0.239,6.21,0.358,10.867,0.358,13.973
			c0,4.698,0.139,8.639,0.418,11.823l-0.418,0.657C137.76,74.457,137.163,74.258,135.969,74.258z M133.999,52.642l0.119,0.119
			h-0.119V52.642z"/>
		<path fill="#FFFFFF" d="M150.748,74.467c-0.737-0.418-1.344-0.904-1.821-1.463c-0.558-0.716-0.996-2.726-1.314-6.031
			c-0.319-3.304-0.518-7.085-0.597-11.346c0-0.955-0.021-1.671-0.06-2.149c-0.08-9.992-0.239-15.904-0.478-17.735l0.358-0.836
			c0.915,0.12,1.373,1.215,1.373,3.285l0.179,15.824c0,1.115,0.099,3.224,0.299,6.329c0.239,2.787,0.358,4.896,0.358,6.33
			c0,4.538,1.493,6.807,4.479,6.807c1.831,0,3.005-4.18,3.523-12.539l0.06-1.194c0.278-10.947,0.418-19.049,0.418-24.304
			l-0.06-0.538c-0.04-0.159-0.06-0.337-0.06-0.537c0-0.438,0.337-0.657,1.015-0.657c0.478,0,0.776,0.12,0.896,0.358
			c0.08,0.398,0.12,1.096,0.12,2.09c0,3.025-0.12,5.056-0.358,6.091l0.06,0.358c0,0.518-0.06,1.314-0.179,2.389l-0.119,2.389v0.597
			c0.039,0.16,0.06,0.358,0.06,0.597c-0.08,0.955-0.119,1.872-0.119,2.747c-0.041,0.279-0.06,0.717-0.06,1.314
			c-0.08,3.782-0.16,7.067-0.239,9.852c-0.12,3.464-0.597,6.39-1.433,8.778c-0.876,2.548-2.29,3.821-4.24,3.821
			C152.171,75.094,151.484,74.885,150.748,74.467z"/>
		<path fill="#FFFFFF" d="M168.334,73.721v-0.776c0.039-0.198,0.06-0.438,0.06-0.717l-0.239-0.238
			c0.318-0.836,0.478-1.651,0.478-2.448c0-0.916-0.06-2.229-0.179-3.941l-0.119-3.941c0-1.99,0.06-4.976,0.179-8.957
			c0.159-3.542,0.239-6.548,0.239-9.017l-0.12-3.583c-0.08-1.075-0.119-2.269-0.119-3.583c0-0.597,0.139-1.024,0.418-1.284
			c0.278-0.258,0.717-0.388,1.313-0.388c0.397,0,0.717,0.12,0.956,0.358c0.079,0.04,0.656,0.119,1.731,0.239
			c0.995,0.12,1.852,0.298,2.567,0.538c0.756,0.239,1.135,0.537,1.135,0.896c0,0.398-0.379,0.797-1.135,1.194
			c-2.269-0.756-3.881-1.135-4.837-1.135l-0.298,0.358c0.039,0.358,0.06,1.215,0.06,2.568c0,1.712-0.04,3.245-0.119,4.598
			c-0.041,1.394-0.061,2.947-0.061,4.658c0,1.115,0.278,1.672,0.836,1.672l0.956-0.06c0.318-0.039,0.656-0.06,1.015-0.06
			c1.553,0,2.329,0.358,2.329,1.075c0,0.438-0.1,0.806-0.299,1.105c-0.199,0.298-0.498,0.448-0.896,0.448
			c-0.597,0-1.055-0.159-1.373-0.478l-1.911-0.299h-0.299l-0.298,0.299V53c0.079,0.677,0.119,2.25,0.119,4.717
			c0,1.552-0.021,2.966-0.06,4.239l-0.06,4.24c0,1.552,0.06,3.145,0.179,4.776c0.039,0.917,0.239,1.523,0.597,1.821
			c0.358,0.299,1.016,0.448,1.971,0.448l1.075-0.06c0.358-0.039,0.756-0.06,1.194-0.06c1.154,0,1.731,0.259,1.731,0.776
			c0,0.716-0.876,1.074-2.627,1.074h-4.896C168.812,74.975,168.413,74.557,168.334,73.721z"/>
		<path fill="#FFFFFF" d="M183.739,73.602c0.08-0.239,0.12-0.896,0.12-1.971c0-3.662,0.06-9.097,0.179-16.302
			c0.12-7.166,0.18-12.34,0.18-15.526l0.119-2.149l0.179-1.792c0-0.278,0.14-0.418,0.418-0.418c0.199,0,0.479,0.06,0.836,0.179
			l0.18,0.06c0,0.876-0.021,1.672-0.06,2.389V40.4v6.509c0.039,1.911,0.06,4.082,0.06,6.509c-0.04,0.199-0.06,0.637-0.06,1.313
			l-0.06,1.253c-0.04,0.797-0.061,1.612-0.061,2.448c0,0.917,0.021,1.753,0.061,2.509l0.06,2.567l-0.18,0.478l0.06-0.06
			c0,0.119-0.021,0.199-0.06,0.239v0.238c0,0.319,0.06,0.598,0.18,0.836l-0.18,5.732v0.358c0,0.678,0.02,1.075,0.06,1.194
			c0,0.2,0.1,0.299,0.299,0.299l3.105,0.119c0.915,0,1.542,0.011,1.881,0.03c0.338,0.021,0.547,0.029,0.627,0.029h0.18
			c0.198,0,0.397,0.11,0.597,0.329c0.198,0.219,0.299,0.447,0.299,0.687c0,0.478-0.319,0.736-0.956,0.776
			c-0.677-0.04-2.328-0.06-4.956-0.06l0.119,0.06c-0.398,0-0.775,0.02-1.134,0.06c-0.319,0.079-0.678,0.119-1.075,0.119
			C184.197,74.975,183.859,74.517,183.739,73.602z"/>
		<path fill="#FFFFFF" d="M198.607,73.602c0.08-0.239,0.12-0.896,0.12-1.971c0-3.662,0.06-9.097,0.179-16.302
			c0.12-7.166,0.18-12.34,0.18-15.526l0.119-2.149l0.179-1.792c0-0.278,0.14-0.418,0.418-0.418c0.199,0,0.479,0.06,0.836,0.179
			l0.18,0.06c0,0.876-0.021,1.672-0.06,2.389V40.4v6.509c0.039,1.911,0.06,4.082,0.06,6.509c-0.04,0.199-0.06,0.637-0.06,1.313
			l-0.06,1.253c-0.04,0.797-0.061,1.612-0.061,2.448c0,0.917,0.021,1.753,0.061,2.509l0.06,2.567l-0.18,0.478l0.06-0.06
			c0,0.119-0.021,0.199-0.06,0.239v0.238c0,0.319,0.06,0.598,0.18,0.836l-0.18,5.732v0.358c0,0.678,0.02,1.075,0.06,1.194
			c0,0.2,0.1,0.299,0.299,0.299l3.105,0.119c0.915,0,1.542,0.011,1.881,0.03c0.338,0.021,0.547,0.029,0.627,0.029h0.18
			c0.198,0,0.397,0.11,0.597,0.329c0.198,0.219,0.299,0.447,0.299,0.687c0,0.478-0.319,0.736-0.956,0.776
			c-0.677-0.04-2.328-0.06-4.956-0.06l0.119,0.06c-0.398,0-0.775,0.02-1.134,0.06c-0.319,0.079-0.678,0.119-1.075,0.119
			C199.065,74.975,198.728,74.517,198.607,73.602z"/>
		<path fill="#FFFFFF" d="M215.029,73.602c-0.2,0-0.358,0.021-0.478,0.06h-0.479c-0.876,0-1.433-0.199-1.672-0.598
			c0-0.277,0.159-0.517,0.479-0.716l0.298-0.299h1.732l0.238-0.239l0.119-0.537l0.061-0.717c0-2.428-0.061-4.598-0.18-6.509
			l-0.119-2.209l-0.119-4.359c0-1.553,0.06-3.881,0.179-6.986l0.119-6.927c0-3.025-0.1-5.334-0.298-6.927
			c-0.358-0.12-0.956-0.179-1.792-0.179l-0.657,0.06c-0.238,0.04-0.498,0.06-0.775,0.06c-0.757,0-1.135-0.338-1.135-1.015
			c0-0.159,0.179-0.318,0.537-0.478c0.358-0.159,0.657-0.239,0.896-0.239c1.513,0,3.025,0.08,4.538,0.239
			c0.916,0.04,1.831,0.219,2.747,0.538c0.717,0.239,1.075,0.578,1.075,1.015c0,0.08-0.06,0.239-0.18,0.478l-1.373,0.12
			c-0.279-0.239-0.856-0.358-1.731-0.358l-0.299,0.179c0.119,0.358,0.18,1.414,0.18,3.165c0,2.627-0.021,4.996-0.061,7.106
			l-0.119,7.106c0,1.791,0.079,3.961,0.239,6.509c0.119,2.906,0.179,5.096,0.179,6.568v0.776c-0.04,0.278-0.06,0.637-0.06,1.074
			c0,0.917,0.06,1.474,0.179,1.672l-0.06,0.12c0,0.398,0.438,0.597,1.314,0.597c0.357,0,0.656-0.02,0.896-0.06h0.896
			c1.154,0,1.731,0.279,1.731,0.836c0,0.358-0.119,0.647-0.358,0.866c-0.238,0.219-0.558,0.328-0.955,0.328
			c-0.358,0-0.678-0.039-0.955-0.119c-0.319-0.039-0.657-0.06-1.016-0.06c-0.238,0-0.597,0.1-1.075,0.298
			c-0.478,0.239-0.836,0.358-1.074,0.358C215.726,74.198,215.188,74,215.029,73.602z"/>
		<path fill="#FFFFFF" d="M231.511,73.362l-0.061-2.209c-0.04-0.637-0.06-1.354-0.06-2.15c0-0.397,0.02-0.735,0.06-1.015
			l0.061-1.075c0-0.397-0.081-0.875-0.239-1.433c0-2.667-0.199-7.623-0.598-14.869c-0.397-7.006-0.617-11.764-0.656-14.272
			c-2.469,0-4.12-0.06-4.956-0.179c-0.797-0.199-1.194-0.517-1.194-0.956c0.198-0.438,0.576-0.657,1.135-0.657
			c1.193,0,2.926,0.08,5.194,0.239c2.069,0.2,3.802,0.298,5.195,0.298h1.254l1.254-0.06c0.717,0,1.075,0.259,1.075,0.776
			c0,0.239-0.13,0.428-0.389,0.567c-0.259,0.14-0.566,0.209-0.925,0.209c-0.797,0-1.633-0.04-2.508-0.12l-2.568-0.12
			c-0.159,0-0.238,0.06-0.238,0.179c-0.04,0.12-0.061,0.499-0.061,1.135c0,3.862,0.239,9.714,0.717,17.556
			c0.438,8.121,0.657,13.954,0.657,17.497c0,0.278-0.17,0.537-0.508,0.775c-0.339,0.239-0.667,0.358-0.985,0.358L231.511,73.362z"/>
		<path fill="#FFFFFF" d="M256.172,74.736c0,0-0.08-0.07-0.238-0.209c-0.16-0.141-0.279-0.508-0.358-1.105
			c-0.358-2.905-0.578-4.717-0.657-5.434l-0.299-2.389c-0.876-0.198-1.871-0.299-2.985-0.299l-2.149-0.119
			c-0.956-0.119-1.652-0.179-2.091-0.179c-0.238,0-0.378,0.1-0.418,0.298c0,0.12-0.021,0.18-0.06,0.18l-0.119,1.194
			c-0.04,0.716-0.26,2.149-0.657,4.299c-0.199,1.075-0.438,1.911-0.716,2.508c-0.319,0.678-0.618,1.016-0.896,1.016
			c-0.238,0-0.498-0.11-0.775-0.328c-0.279-0.219-0.419-0.448-0.419-0.688l0.061-0.179l0.06-0.179
			c0.717-2.826,1.313-5.633,1.791-8.42l0.717-3.702l0.717-4.538l0.656-3.941c0.199-1.075,0.558-2.807,1.075-5.195
			c0.557-2.707,0.896-4.558,1.016-5.554c0.039-0.119,0.119-0.855,0.238-2.209c0.159-1.512,0.299-2.627,0.418-3.344
			c0.119-1.035,0.239-1.632,0.358-1.792h0.418c0.119,0.04,0.259,0.06,0.418,0.06c0.478,0,0.836-0.119,1.075-0.358
			c0.277,0,0.527,0.089,0.746,0.269s0.328,0.388,0.328,0.627c0,1.911,0.14,4.101,0.418,6.568c0.159,1.275,0.278,2.329,0.358,3.165
			c0.438,5.135,1.553,14.77,3.345,28.901v0.179c0,0.397-0.16,0.696-0.479,0.896C256.471,74.736,256.172,74.736,256.172,74.736z
			 M254.321,63.987c-0.398-5.732-1.155-14.191-2.27-25.378l-3.225,15.943c-0.916,4.578-1.373,7.464-1.373,8.658
			c0,0.2,0.756,0.379,2.269,0.537c1.513,0.16,2.846,0.239,4.001,0.239H254.321z"/>
		<path fill="#FFFFFF" d="M263.396,74.407c-0.398-0.258-0.618-0.567-0.657-0.926l0.299-0.478c0.158,0,0.517,0.06,1.075,0.18
			c0.438,0.159,0.796,0.238,1.074,0.238c0.875,0,1.651-0.348,2.329-1.045c0.677-0.695,1.194-1.602,1.553-2.717
			c0.557-2.069,0.836-4.021,0.836-5.852c0-2.747-0.836-5.692-2.508-8.838c-1.036-1.831-1.832-3.284-2.389-4.359
			c-0.558-1.075-1.056-2.309-1.493-3.703c-0.518-1.632-0.776-3.204-0.776-4.717c0-1.433,0.358-3.125,1.075-5.076
			c0.358-0.915,0.866-1.662,1.522-2.239c0.657-0.577,1.363-0.866,2.12-0.866c0.517,0,1.024,0.179,1.522,0.538
			c0.497,0.358,0.746,0.737,0.746,1.134c0,0.319-0.259,0.478-0.775,0.478c-0.16,0-0.358-0.06-0.598-0.179
			c-0.238-0.12-0.458-0.179-0.657-0.179c-0.597,0-1.134,0.239-1.612,0.716c-0.478,0.478-0.836,1.096-1.074,1.851
			c-0.478,1.474-0.717,2.827-0.717,4.061c0,0.757,0.099,1.533,0.299,2.329c0.039,0.239,0.079,0.438,0.119,0.597
			c0.039,0.16,0.06,0.279,0.06,0.358l0.358,1.194l0.299,1.075l0.478,1.075c0.119,0.279,0.248,0.528,0.389,0.747
			c0.139,0.219,0.269,0.428,0.388,0.627l0.717,1.254c0.158,0.239,0.497,0.806,1.015,1.702c0.518,0.896,0.995,1.842,1.434,2.836
			c0.397,0.836,0.696,1.622,0.896,2.358c0.198,0.737,0.378,1.623,0.537,2.657c0.12,0.996,0.18,2.09,0.18,3.284
			c0,1.911-0.26,3.703-0.776,5.375c-0.717,1.991-1.752,3.384-3.105,4.18c-0.757,0.478-1.633,0.717-2.627,0.717l-0.299,0.119
			C264.212,74.835,263.794,74.666,263.396,74.407z M269.428,35.982c0-0.04-0.021-0.06-0.06-0.06v0.06H269.428z"/>
	</g>
</g>
<g>
	<g>
		<circle fill="#FFFFFF" cx="55.617" cy="55" r="55"/>
	</g>
	<g>
		<g>
			<g>
				<g>
					<path fill="#C02846" d="M33.424,43.115c-7.095-3.38-9.461,4.9-9.629,12.334c-0.17,7.434,6.252,11.658,11.659,6.42
						c5.405-5.236,5.065-9.292,3.378-13.01C37.143,45.143,33.424,43.115,33.424,43.115z"/>
					<path fill="#C02846" d="M43.604,20.719c-4.605,0.159-8.419,7.941-8.735,11.593c-0.318,3.653,2.224,8.735,7.782,10.959
						c5.561,2.223,6.988-2.541,7.782-6.353c0.796-3.811,0.796-8.417-1.747-12.388C46.147,20.56,43.604,20.719,43.604,20.719z"/>
					<path fill="#C02846" d="M76.208,43.899c7.096-3.379,9.461,4.9,9.629,12.335c0.17,7.434-6.25,11.658-11.658,6.42
						c-5.407-5.238-5.067-9.293-3.377-13.01C72.489,45.927,76.208,43.899,76.208,43.899z"/>
					<path fill="#C02846" d="M65.918,20.719c4.605,0.159,8.416,7.941,8.734,11.593c0.318,3.653-2.224,8.735-7.783,10.959
						c-5.557,2.223-6.986-2.541-7.782-6.353c-0.794-3.811-0.794-8.417,1.747-12.388C63.376,20.56,65.918,20.719,65.918,20.719z"/>
					<path fill="#C02846" d="M55.66,51.671c-10.239-1.085-8.601,8.339-13.136,13.148c-4.539,4.812-10.033,7.377-9.555,16.677
						c0.477,9.301,7.642,8.98,23.406,9.301c15.764,0.32,20.78-1.604,21.258-8.339c0.477-6.734-2.389-8.337-7.165-13.47
						C65.691,63.857,64.736,52.633,55.66,51.671z"/>
				</g>
			</g>
		</g>
	</g>
</g>
</svg>
