<?xml version="1.0" encoding="utf-8"?>
<!-- Generator: Adobe Illustrator 16.0.0, SVG Export Plug-In . SVG Version: 6.00 Build 0)  -->
<!DOCTYPE svg PUBLIC "-//W3C//DTD SVG 1.1//EN" "http://www.w3.org/Graphics/SVG/1.1/DTD/svg11.dtd">
<svg version="1.1" id="Layer_1" xmlns="http://www.w3.org/2000/svg" xmlns:xlink="http://www.w3.org/1999/xlink" x="0px" y="0px"
	 width="110px" height="110px" viewBox="0 0 110 110" enable-background="new 0 0 110 110" xml:space="preserve">
<g>
	<circle fill="#FFFFFF" cx="55" cy="55" r="55"/>
</g>
<g>
	<g>
		<g>
			<g>
				<path fill="#C12846" d="M33.609,42.341c-7.096-3.38-9.461,4.9-9.63,12.334c-0.169,7.433,6.252,11.657,11.659,6.419
					c5.406-5.236,5.066-9.292,3.378-13.009C37.327,44.369,33.609,42.341,33.609,42.341z"/>
				<path fill="#C12846" d="M43.789,19.945c-4.605,0.159-8.42,7.941-8.736,11.593c-0.318,3.653,2.224,8.735,7.782,10.959
					c5.561,2.223,6.989-2.541,7.782-6.353c0.796-3.811,0.796-8.417-1.746-12.388C46.331,19.786,43.789,19.945,43.789,19.945z"/>
				<path fill="#C12846" d="M76.392,43.125c7.096-3.379,9.461,4.9,9.629,12.334c0.17,7.434-6.25,11.658-11.658,6.42
					c-5.407-5.238-5.067-9.292-3.377-13.009C72.673,45.153,76.392,43.125,76.392,43.125z"/>
				<path fill="#C12846" d="M66.103,19.945c4.605,0.159,8.416,7.941,8.734,11.593c0.318,3.653-2.224,8.735-7.783,10.959
					c-5.557,2.223-6.986-2.541-7.782-6.353c-0.794-3.811-0.794-8.417,1.747-12.388C63.561,19.786,66.103,19.945,66.103,19.945z"/>
				<path fill="#C12846" d="M55.844,50.897c-10.239-1.085-8.601,8.338-13.136,13.148c-4.539,4.812-10.033,7.377-9.555,16.677
					c0.477,9.301,7.642,8.98,23.406,9.301c15.764,0.32,20.78-1.604,21.258-8.339c0.477-6.734-2.389-8.337-7.165-13.47
					C65.875,63.083,64.92,51.859,55.844,50.897z"/>
			</g>
		</g>
	</g>
</g>
</svg>
