<?xml version="1.0" encoding="utf-8"?>
<!-- Generator: Adobe Illustrator 16.0.0, SVG Export Plug-In . SVG Version: 6.00 Build 0)  -->
<!DOCTYPE svg PUBLIC "-//W3C//DTD SVG 1.1//EN" "http://www.w3.org/Graphics/SVG/1.1/DTD/svg11.dtd">
<svg version="1.1" id="Layer_1" xmlns="http://www.w3.org/2000/svg" xmlns:xlink="http://www.w3.org/1999/xlink" x="0px" y="0px"
	 width="50px" height="50px" viewBox="0 0 50 50" enable-background="new 0 0 50 50" xml:space="preserve">
<g id="Page-1">
	<g>
		<g id="Dribbble-Light-Preview_8_" transform="translate(-340.000000, -7439.000000)">
			<g id="icons_8_" transform="translate(56.000000, 160.000000)">
				<path id="instagram-_x5B__x23_167_x5D__8_" fill="#F2F1CD" d="M299.432,7281.121c-3.769,0.17-7.037,1.091-9.678,3.719
					c-2.646,2.643-3.558,5.923-3.728,9.655c-0.108,2.33-0.729,19.925,1.072,24.54c1.21,3.113,3.599,5.507,6.741,6.724
					c1.466,0.57,3.14,0.957,5.592,1.067c20.526,0.93,28.136,0.426,31.344-7.791c0.57-1.461,0.959-3.135,1.068-5.583
					c0.938-20.577-0.149-25.038-3.729-28.612C325.278,7282.01,321.939,7280.084,299.432,7281.121 M299.622,7322.688
					c-2.249-0.102-3.466-0.477-4.28-0.789c-2.048-0.796-3.583-2.328-4.375-4.361c-1.368-3.506-0.914-20.161-0.792-22.857
					c0.118-2.638,0.654-5.049,2.516-6.913c2.305-2.299,5.284-3.425,25.56-2.511c2.645,0.12,5.065,0.653,6.932,2.511
					c2.305,2.298,3.447,5.3,2.518,25.499c-0.104,2.242-0.479,3.457-0.794,4.271C324.819,7322.88,320.021,7323.624,299.622,7322.688
					 M318.474,7291.699c0,1.522,1.238,2.76,2.765,2.76c1.529,0,2.769-1.237,2.769-2.76c0-1.521-1.239-2.76-2.769-2.76
					C319.712,7288.939,318.474,7290.178,318.474,7291.699 M297.102,7303.973c0,6.52,5.298,11.806,11.835,11.806
					c6.536,0,11.836-5.286,11.836-11.806c0-6.522-5.3-11.804-11.836-11.804C302.399,7292.169,297.102,7297.451,297.102,7303.973
					 M301.255,7303.973c0-4.23,3.438-7.664,7.682-7.664c4.244,0,7.683,3.434,7.683,7.664c0,4.233-3.438,7.665-7.683,7.665
					C304.693,7311.638,301.255,7308.206,301.255,7303.973"/>
			</g>
		</g>
	</g>
</g>
<g>
</g>
<g>
</g>
<g>
</g>
<g>
</g>
<g>
</g>
<g>
</g>
</svg>
